<svg xmlns="http://www.w3.org/2000/svg" width="256" height="256" viewBox="0 0 100 100"><rect width="100" height="100" rx="20" fill="#f8b31d"></rect><path fill="#fff" d="M39.98 66.20L39.98 66.20Q39.98 65.61 40.30 65.28Q40.61 64.95 41.11 64.82Q41.61 64.69 42.24 64.66Q42.86 64.64 43.48 64.64Q44.10 64.64 44.65 64.60Q45.20 64.56 45.54 64.39L45.54 64.39Q45.54 64.25 45.58 63.84Q45.62 63.44 45.67 63.00Q45.72 62.56 45.75 62.16Q45.79 61.76 45.81 61.61L45.81 61.61Q45.81 61.58 45.84 61.47Q45.86 61.36 45.90 61.24Q45.94 61.12 45.96 61.00Q45.98 60.88 45.98 60.85L45.98 60.85L45.98 60.80L45.98 60.68Q45.98 60.61 45.90 60.25Q45.81 59.90 45.81 59.07L45.81 59.07L45.81 57.12Q45.94 56.90 45.98 56.64Q46.03 56.38 46.03 56.12L46.03 56.12Q46.03 55.43 45.92 54.80Q45.81 54.16 45.81 53.48L45.81 53.48L45.81 53.19Q45.84 53.11 45.89 53.04L45.89 53.04Q45.98 52.89 45.98 52.87L45.98 52.87Q46.01 52.84 46.03 52.62Q46.06 52.40 46.07 52.14Q46.08 51.87 46.11 51.60Q46.13 51.33 46.15 51.16L46.15 51.16L46.15 51.09Q46.15 50.74 46.09 50.27Q46.03 49.79 45.81 49.48L45.81 49.48L45.81 45.20Q45.86 45.18 45.92 45.06Q45.98 44.93 45.98 44.84L45.98 44.84Q45.98 44.76 45.90 44.54Q45.81 44.32 45.81 44.27L45.81 44.27L45.81 43.96L45.81 43.52Q45.81 43.44 45.89 43.32L45.89 43.32L45.98 43.18Q45.98 43.15 45.96 43.13L45.96 43.13Q45.94 43.10 45.89 43.01L45.89 43.01Q45.84 42.93 45.81 42.86L45.81 42.86L45.81 41.15Q45.79 41.08 45.74 40.87Q45.69 40.66 45.62 40.42Q45.54 40.17 45.50 39.97Q45.45 39.76 45.42 39.69L45.42 39.69Q45.42 39.61 45.34 39.54Q45.25 39.47 45.23 39.42L45.23 39.42L45.08 39.42L45.06 39.42Q44.98 39.49 44.86 39.61Q44.74 39.73 44.63 39.86Q44.52 39.98 44.42 40.08Q44.32 40.17 44.30 40.20L44.30 40.20Q44.30 40.20 44.27 40.31Q44.25 40.42 44.21 40.54Q44.18 40.66 44.15 40.77Q44.13 40.88 44.13 40.91L44.13 40.91Q43.74 42.05 43.18 43.14Q42.61 44.23 42.00 45.20L42.00 45.20Q41.56 46.06 41.13 46.98Q40.69 47.91 40.20 48.77L40.20 48.77Q39.64 49.79 39.04 50.78Q38.44 51.77 38.00 52.87L38.00 52.87Q37.95 52.89 37.87 53.14Q37.78 53.38 37.78 53.45L37.78 53.45Q37.76 53.48 37.67 53.64Q37.59 53.80 37.49 53.98Q37.39 54.16 37.30 54.32Q37.22 54.48 37.19 54.50L37.19 54.50Q37.07 54.90 36.98 55.36Q36.88 55.82 36.63 56.24L36.63 56.24Q36.41 56.63 36.01 57.19Q35.61 57.75 35.34 58.26L35.34 58.26Q35.34 58.31 35.28 58.54Q35.22 58.78 35.22 58.80L35.22 58.80Q35.17 58.87 35.01 59.09Q34.85 59.31 34.66 59.58Q34.46 59.85 34.28 60.12Q34.09 60.39 33.97 60.53L33.97 60.53L33.85 60.68Q33.85 60.73 33.83 60.86Q33.80 61.00 33.78 61.16Q33.75 61.32 33.72 61.45Q33.68 61.58 33.65 61.61L33.65 61.61Q33.65 61.63 33.51 61.84Q33.36 62.05 33.31 62.15L33.31 62.15Q32.92 62.71 32.84 63.24Q32.75 63.78 32.56 64.39L32.56 64.39Q32.56 64.44 32.48 64.59Q32.41 64.73 32.41 64.76L32.41 64.76Q32.36 64.81 32.28 65.06Q32.19 65.32 32.09 65.61Q31.99 65.91 31.91 66.15Q31.82 66.39 31.80 66.47L31.80 66.47Q31.75 66.69 31.58 66.76Q31.41 66.83 31.19 66.83L31.19 66.83Q31.02 66.83 30.80 66.60Q30.58 66.37 30.36 66.06Q30.14 65.76 29.98 65.47Q29.82 65.17 29.75 65.03L29.75 65.03Q29.50 64.20 29.33 63.37Q29.16 62.54 28.87 61.80L28.87 61.80Q28.80 61.73 28.66 61.45Q28.53 61.17 28.38 60.85Q28.23 60.53 28.10 60.25Q27.97 59.97 27.94 59.90L27.94 59.90Q27.89 59.85 27.81 59.62Q27.72 59.39 27.62 59.11Q27.53 58.83 27.44 58.58Q27.36 58.34 27.31 58.26L27.31 58.26Q27.21 57.97 27.11 57.79Q27.01 57.60 26.90 57.43Q26.79 57.26 26.68 57.07Q26.57 56.87 26.48 56.58L26.48 56.58Q26.18 56.14 26.04 55.65Q25.89 55.16 25.70 54.75L25.70 54.75Q25.70 54.75 25.62 54.65Q25.55 54.55 25.45 54.42Q25.35 54.28 25.27 54.16Q25.18 54.04 25.11 53.97L25.11 53.97L24.94 53.80Q24.91 53.75 24.83 53.49Q24.74 53.23 24.65 52.94Q24.55 52.65 24.48 52.39Q24.40 52.14 24.40 52.09L24.40 52.09Q24.21 51.72 23.90 51.34Q23.60 50.96 23.43 50.62L23.43 50.62Q23.43 50.55 23.34 50.26Q23.25 49.96 23.25 49.89L23.25 49.89Q23.21 49.84 23.06 49.63Q22.91 49.43 22.91 49.30L22.91 49.30Q22.62 48.96 22.42 48.52Q22.23 48.08 22.06 47.62Q21.89 47.16 21.73 46.68Q21.57 46.20 21.35 45.76L21.35 45.76Q21.35 45.72 21.26 45.58Q21.18 45.45 21.18 45.37L21.18 45.37Q20.81 44.67 20.56 43.82Q20.30 42.98 19.89 42.22L19.89 42.22L19.71 42.08Q19.40 41.64 19.19 41.22Q18.98 40.81 18.80 40.38Q18.62 39.95 18.44 39.53Q18.27 39.10 18.03 38.66L18.03 38.66L17.88 38.66L17.81 38.66Q17.76 38.66 17.64 38.77Q17.52 38.88 17.47 38.93L17.47 38.93Q17.08 39.49 16.76 40.31Q16.44 41.13 16.32 41.83L16.32 41.83L16.32 45.64Q16.32 45.67 16.30 45.83Q16.27 45.98 16.24 46.17Q16.20 46.35 16.17 46.51Q16.15 46.67 16.15 46.69L16.15 46.69L16.15 46.77L16.15 46.86Q16.15 46.94 16.17 47.22Q16.20 47.50 16.24 47.81Q16.27 48.13 16.30 48.41Q16.32 48.69 16.32 48.77L16.32 48.77Q16.32 49.04 16.37 49.60Q16.42 50.16 16.42 50.82L16.42 50.82Q16.42 51.50 16.37 52.06Q16.32 52.62 16.32 52.87L16.32 52.87Q16.39 52.92 16.46 53.13Q16.52 53.33 16.59 53.45L16.59 53.45L16.59 53.58Q16.59 54.02 16.37 54.39Q16.15 54.77 16.15 55.26L16.15 55.26Q16.15 55.36 16.17 55.65Q16.20 55.94 16.24 56.25Q16.27 56.56 16.30 56.81Q16.32 57.07 16.32 57.12L16.32 57.12Q16.32 57.29 16.37 57.56Q16.42 57.82 16.42 58.02L16.42 58.02Q16.42 58.73 16.36 59.34Q16.30 59.95 16.30 60.68L16.30 60.68Q16.30 61.51 16.35 62.29Q16.39 63.07 16.59 63.81L16.59 63.81Q16.61 64.03 16.76 64.18Q16.91 64.34 17.09 64.45Q17.27 64.56 17.47 64.64Q17.66 64.71 17.81 64.76L17.81 64.76Q17.88 64.76 18.19 64.78Q18.49 64.81 18.85 64.84Q19.20 64.88 19.51 64.93Q19.81 64.98 19.89 65.03L19.89 65.03Q20.18 65.05 20.53 65.10Q20.89 65.15 21.19 65.27Q21.50 65.39 21.72 65.64Q21.94 65.88 21.94 66.30L21.94 66.30Q21.94 66.54 21.73 66.70Q21.52 66.86 21.24 66.97Q20.96 67.08 20.68 67.13Q20.40 67.18 20.25 67.18L20.25 67.18L11.90 67.18Q11.51 67.30 11.32 67.35Q11.12 67.40 10.80 67.40L10.80 67.40Q10.39 67.40 9.92 67.35Q9.46 67.30 9.09 67.18L9.09 67.18Q8.95 67.13 8.75 67.00Q8.56 66.88 8.56 66.83L8.56 66.83Q8.26 66.52 8.26 66.20L8.26 66.20Q8.26 66.05 8.33 65.87Q8.39 65.69 8.56 65.54L8.56 65.54Q8.56 65.39 9.14 65.31Q9.73 65.22 10.47 65.08Q11.22 64.93 11.90 64.69Q12.59 64.44 12.78 64.00L12.78 64.00Q12.83 63.93 12.85 63.81Q12.88 63.68 12.92 63.54Q12.95 63.39 13.01 63.24Q13.07 63.10 13.17 63.02L13.17 63.02Q13.22 62.98 13.28 62.74Q13.34 62.51 13.40 62.26Q13.46 62.00 13.50 61.77Q13.54 61.54 13.54 61.46L13.54 61.46Q13.56 61.27 13.60 60.75Q13.64 60.24 13.68 59.68Q13.73 59.12 13.77 58.61Q13.81 58.09 13.81 57.87L13.81 57.87Q13.81 57.78 13.87 57.58Q13.93 57.39 13.93 57.34L13.93 57.34L13.93 57.24L13.93 57.12Q13.88 57.04 13.85 56.95L13.85 56.95Q13.81 56.75 13.81 56.75L13.81 56.75L13.81 56.70L13.81 56.58Q14.05 55.80 14.06 55.02Q14.07 54.24 14.12 53.45L14.12 53.45Q14.12 53.38 14.15 53.25Q14.17 53.11 14.21 52.95Q14.25 52.80 14.27 52.66Q14.29 52.53 14.29 52.48L14.29 52.48Q14.32 52.26 14.34 51.67Q14.37 51.09 14.39 50.43Q14.42 49.77 14.44 49.19Q14.47 48.62 14.47 48.43L14.47 48.43L14.64 47.96Q14.71 46.25 14.94 44.64Q15.17 43.03 15.22 41.30L15.22 41.30L15.39 41.15L15.39 40.44Q15.39 39.90 15.31 39.43Q15.22 38.95 15.22 38.42L15.22 38.42L15.22 38.37Q15.22 38.27 15.31 38.13Q15.39 38.00 15.39 37.95L15.39 37.95L15.39 37.07Q15.39 36.44 15.22 36.06Q15.05 35.68 14.73 35.46Q14.42 35.24 13.98 35.11Q13.54 34.97 13.02 34.83L13.02 34.83Q12.90 34.75 12.62 34.67Q12.34 34.58 12.02 34.48Q11.71 34.39 11.41 34.28Q11.12 34.17 10.97 34.09L10.97 34.09Q10.85 34.05 10.74 33.81Q10.63 33.58 10.63 33.46L10.63 33.46Q10.63 33.31 10.73 33.19Q10.83 33.07 10.96 32.96Q11.10 32.85 11.23 32.79Q11.36 32.73 11.46 32.70L11.46 32.70L13.93 32.70Q15.32 32.70 16.67 32.84Q18.03 32.97 19.42 32.97L19.42 32.97Q19.67 32.97 19.91 32.95Q20.15 32.92 20.42 32.92L20.42 32.92Q20.91 32.92 21.28 33.26Q21.64 33.61 21.90 34.08Q22.16 34.56 22.35 35.07Q22.55 35.58 22.72 35.93L22.72 35.93Q22.72 35.95 22.79 36.11Q22.86 36.27 22.96 36.45Q23.06 36.63 23.14 36.80Q23.23 36.98 23.25 37.02L23.25 37.02Q23.25 37.05 23.28 37.16Q23.30 37.27 23.34 37.39Q23.38 37.51 23.40 37.61Q23.43 37.71 23.43 37.73L23.43 37.73Q23.43 37.78 23.51 37.93Q23.60 38.07 23.69 38.23Q23.79 38.39 23.88 38.53Q23.96 38.66 23.96 38.66L23.96 38.66Q23.99 38.73 24.07 39.03Q24.16 39.32 24.26 39.62Q24.35 39.93 24.43 40.20Q24.50 40.47 24.52 40.52L24.52 40.52Q24.60 40.64 24.74 40.97Q24.89 41.30 25.07 41.66Q25.26 42.03 25.43 42.36Q25.60 42.69 25.70 42.86L25.70 42.86Q25.70 42.88 25.84 43.02Q25.99 43.15 26.04 43.18L26.04 43.18Q26.06 43.25 26.11 43.32L26.11 43.32Q26.21 43.47 26.21 43.52L26.21 43.52Q26.43 44.13 26.65 44.75Q26.87 45.37 27.19 45.98L27.19 45.98Q27.19 46.01 27.33 46.15Q27.48 46.30 27.53 46.35L27.53 46.35Q27.58 46.40 27.67 46.58Q27.77 46.77 27.88 47.01Q27.99 47.25 28.10 47.49Q28.21 47.72 28.28 47.84L28.28 47.84Q28.28 47.86 28.37 48.08Q28.45 48.30 28.45 48.43L28.45 48.43Q28.55 48.82 28.66 49.08Q28.77 49.35 28.92 49.57Q29.06 49.79 29.24 50.04Q29.41 50.28 29.60 50.62L29.60 50.62Q29.60 50.65 29.66 50.76Q29.72 50.87 29.79 50.98Q29.85 51.09 29.90 51.20Q29.94 51.31 29.97 51.33L29.97 51.33Q30.31 52.19 30.76 53.09Q31.21 53.99 31.48 54.90L31.48 54.90Q31.48 54.92 31.51 55.05Q31.53 55.19 31.56 55.35Q31.58 55.51 31.62 55.65Q31.65 55.80 31.65 55.82L31.65 55.82Q31.65 55.85 31.74 55.97Q31.82 56.09 31.95 56.24Q32.07 56.38 32.19 56.53Q32.31 56.68 32.41 56.75L32.41 56.75Q32.60 57.02 32.81 57.18Q33.02 57.34 33.36 57.34L33.36 57.34Q33.46 57.34 33.62 57.17Q33.78 56.99 33.94 56.77Q34.09 56.56 34.24 56.34Q34.39 56.12 34.44 55.99L34.44 55.99Q34.78 55.43 34.95 54.83Q35.12 54.24 35.34 53.58L35.34 53.58L35.53 53.45Q35.53 53.38 35.56 53.26Q35.58 53.14 35.62 53.02Q35.66 52.89 35.68 52.80Q35.71 52.70 35.71 52.70L35.71 52.70Q35.71 52.62 35.75 52.48Q35.80 52.33 35.88 52.19Q35.95 52.04 36.01 51.92Q36.07 51.79 36.10 51.77L36.10 51.77Q36.12 51.75 36.21 51.64Q36.29 51.53 36.38 51.38Q36.46 51.23 36.55 51.12Q36.63 51.01 36.63 50.99L36.63 50.99Q36.66 50.99 36.69 50.87Q36.73 50.74 36.76 50.61Q36.78 50.48 36.79 50.37Q36.80 50.26 36.80 50.23L36.80 50.23Q36.85 50.16 36.96 49.96Q37.07 49.77 37.19 49.54Q37.32 49.30 37.43 49.10Q37.54 48.89 37.59 48.77L37.59 48.77Q38.29 47.50 38.93 46.14Q39.56 44.79 40.20 43.52L40.20 43.52Q40.22 43.49 40.31 43.36Q40.39 43.23 40.49 43.07Q40.59 42.91 40.67 42.77Q40.76 42.64 40.78 42.59L40.78 42.59Q40.81 42.54 40.88 42.38Q40.95 42.22 41.05 42.04Q41.15 41.86 41.22 41.70Q41.30 41.54 41.30 41.49L41.30 41.49Q41.69 40.76 41.98 39.99Q42.27 39.22 42.59 38.49L42.59 38.49Q42.59 38.44 42.68 38.22Q42.76 38.00 42.76 37.95L42.76 37.95Q42.81 37.90 43.07 37.68Q43.32 37.46 43.37 37.37L43.37 37.37Q43.37 37.34 43.40 37.24Q43.42 37.15 43.44 37.04Q43.47 36.93 43.49 36.82Q43.52 36.71 43.52 36.68L43.52 36.68Q43.59 36.51 43.73 36.29Q43.86 36.07 44.01 35.86Q44.15 35.66 44.27 35.47Q44.40 35.29 44.47 35.17L44.47 35.17Q44.64 34.88 44.76 34.56Q44.89 34.24 45.03 33.94Q45.18 33.63 45.35 33.36Q45.52 33.09 45.81 32.92L45.81 32.92Q45.94 32.82 46.23 32.70Q46.52 32.58 46.57 32.58L46.57 32.58L51.18 32.58Q51.28 32.53 51.56 32.45Q51.84 32.36 51.94 32.36L51.94 32.36L52.11 32.36Q52.38 32.36 52.67 32.47Q52.97 32.58 53.23 32.58L53.23 32.58Q53.45 32.58 53.69 32.47Q53.92 32.36 54.14 32.36L54.14 32.36L54.33 32.36Q54.43 32.36 54.68 32.39Q54.92 32.41 55.19 32.45Q55.46 32.48 55.70 32.52Q55.94 32.56 56.04 32.58L56.04 32.58Q56.19 32.63 56.21 32.75Q56.24 32.87 56.24 32.97L56.24 32.97Q56.24 33.24 56.19 33.41Q56.14 33.58 56.04 33.85L56.04 33.85Q55.97 33.87 55.81 33.94Q55.65 34.00 55.48 34.05Q55.31 34.09 55.15 34.14Q54.99 34.19 54.94 34.19L54.94 34.19Q54.75 34.22 54.30 34.25Q53.85 34.29 53.34 34.33Q52.84 34.36 52.39 34.39Q51.94 34.41 51.77 34.41L51.77 34.41Q51.43 34.73 51.11 35.16Q50.79 35.58 50.79 36.12L50.79 36.12L50.79 38.66L50.79 41.30Q50.84 42.00 51.01 42.66Q51.18 43.32 51.18 44.03L51.18 44.03L51.18 44.57Q51.18 44.74 51.17 44.90Q51.16 45.06 51.04 45.20L51.04 45.20L51.04 50.40Q51.16 50.70 51.17 50.88Q51.18 51.06 51.18 51.33L51.18 51.33L51.18 51.77Q51.06 52.70 50.82 53.60Q50.57 54.50 50.57 55.55L50.57 55.55Q50.57 55.82 50.65 56.04Q50.72 56.26 50.81 56.48Q50.89 56.70 50.96 56.95Q51.04 57.19 51.04 57.51L51.04 57.51L51.04 63.46Q51.06 63.51 51.17 63.65Q51.28 63.78 51.39 63.93Q51.50 64.07 51.61 64.21Q51.72 64.34 51.77 64.39L51.77 64.39Q52.01 64.69 52.48 64.78Q52.94 64.88 53.48 64.90Q54.02 64.93 54.58 64.94Q55.14 64.95 55.59 65.10Q56.04 65.25 56.34 65.58Q56.63 65.91 56.63 66.54L56.63 66.54Q56.63 67.10 56.18 67.33Q55.73 67.57 55.24 67.57L55.24 67.57L54.72 67.57Q54.68 67.57 54.54 67.54Q54.41 67.52 54.25 67.48Q54.09 67.44 53.97 67.41Q53.85 67.37 53.85 67.35L53.85 67.35Q53.72 67.35 53.34 67.33Q52.97 67.32 52.51 67.30Q52.06 67.27 51.65 67.24Q51.23 67.20 51.04 67.18L51.04 67.18Q50.70 67.18 50.48 67.15Q50.26 67.13 49.82 67.00L49.82 67.00L48.60 67.00Q47.25 67.00 45.94 67.09Q44.62 67.18 43.27 67.18L43.27 67.18L41.30 67.18Q41.10 67.18 40.87 67.11Q40.64 67.05 40.44 66.93Q40.25 66.81 40.11 66.63Q39.98 66.44 39.98 66.20ZM74.65 66.88L74.65 66.88L74.08 66.88Q74.06 66.88 73.95 66.91Q73.84 66.93 73.72 66.97Q73.60 67.00 73.47 67.03Q73.35 67.05 73.33 67.05L73.33 67.05Q72.08 67.18 70.81 67.21Q69.54 67.25 68.27 67.25L68.27 67.25Q68.01 67.25 67.60 67.24Q67.20 67.22 66.83 67.11Q66.47 67.00 66.20 66.78Q65.93 66.56 65.93 66.15L65.93 66.15Q65.93 65.83 66.08 65.52Q66.22 65.20 66.49 65.08L66.49 65.08Q66.74 65.05 67.35 65.03Q67.96 65.00 68.63 64.97Q69.30 64.93 69.91 64.89Q70.52 64.86 70.76 64.81L70.76 64.81Q70.91 64.81 71.15 64.79Q71.40 64.78 71.66 64.72Q71.91 64.66 72.12 64.56Q72.33 64.47 72.45 64.29L72.45 64.29Q72.74 63.68 72.74 63.00L72.74 63.00L72.74 62.24L72.74 60.29Q72.74 60.22 72.78 59.95Q72.81 59.68 72.85 59.36Q72.89 59.05 72.94 58.75Q72.99 58.46 72.99 58.39L72.99 58.39Q73.11 55.85 73.13 53.28Q73.16 50.72 73.16 48.18L73.16 48.18Q73.16 47.11 73.13 46.08Q73.11 45.06 73.11 44.03L73.11 44.03Q73.11 43.66 73.12 42.82Q73.13 41.98 73.13 41.06Q73.13 40.15 73.14 39.33Q73.16 38.51 73.16 38.20L73.16 38.20Q73.03 37.71 72.83 37.38Q72.62 37.05 72.28 36.73L72.28 36.73Q72.16 36.71 71.85 36.67Q71.55 36.63 71.22 36.60Q70.89 36.56 70.58 36.54Q70.28 36.51 70.15 36.51L70.15 36.51Q70.10 36.51 69.92 36.55Q69.74 36.58 69.53 36.62Q69.32 36.66 69.13 36.69Q68.93 36.73 68.88 36.73L68.88 36.73Q68.74 36.76 68.29 36.76Q67.83 36.76 67.32 36.76L67.32 36.76Q66.83 36.76 66.39 36.76Q65.95 36.76 65.76 36.73L65.76 36.73Q65.39 36.88 64.95 36.94Q64.51 37.00 64.12 37.27L64.12 37.27Q64.12 37.32 63.98 37.46Q63.83 37.61 63.78 37.66L63.78 37.66Q63.59 37.88 63.26 38.26Q62.93 38.64 62.61 39.03Q62.29 39.42 62.04 39.71Q61.78 40.00 61.76 40.03L61.76 40.03Q61.58 40.25 61.43 40.63Q61.27 41.00 61.07 41.36Q60.88 41.71 60.61 41.98Q60.34 42.25 59.95 42.25L59.95 42.25Q59.66 42.25 59.53 42.09Q59.41 41.93 59.34 41.71L59.34 41.71Q59.34 41.64 59.34 41.48Q59.34 41.32 59.33 41.14Q59.31 40.95 59.31 40.77Q59.31 40.59 59.31 40.52L59.31 40.52Q59.31 40.44 59.31 40.28Q59.31 40.12 59.33 39.97Q59.34 39.81 59.34 39.67Q59.34 39.54 59.34 39.51L59.34 39.51Q59.36 39.44 59.45 39.14Q59.53 38.83 59.63 38.49Q59.73 38.15 59.81 37.85Q59.90 37.56 59.95 37.49L59.95 37.49Q59.95 37.41 60.00 37.17Q60.05 36.93 60.11 36.65Q60.17 36.36 60.22 36.13Q60.27 35.90 60.29 35.83L60.29 35.83Q60.29 35.78 60.38 35.56Q60.46 35.34 60.56 35.07Q60.66 34.80 60.74 34.58Q60.83 34.36 60.83 34.31L60.83 34.31Q60.90 34.12 60.99 33.86Q61.07 33.61 61.21 33.39Q61.34 33.17 61.54 33.01Q61.73 32.85 62.00 32.85L62.00 32.85Q62.41 32.85 62.67 33.07Q62.93 33.29 63.15 33.56Q63.37 33.83 63.59 34.11Q63.81 34.39 64.12 34.48L64.12 34.48Q64.64 34.48 65.20 34.46Q65.76 34.44 66.32 34.44L66.32 34.44Q67.37 34.44 68.40 34.48Q69.42 34.53 70.42 34.70L70.42 34.70Q70.42 34.70 70.52 34.74Q70.62 34.78 70.73 34.81Q70.84 34.85 70.95 34.88Q71.06 34.90 71.08 34.90L71.08 34.90L71.86 34.90Q72.50 34.90 73.02 34.78Q73.55 34.66 74.21 34.66L74.21 34.66Q74.30 34.66 74.49 34.66Q74.67 34.66 74.87 34.66Q75.06 34.66 75.21 34.67Q75.35 34.68 75.40 34.70L75.40 34.70Q75.50 34.70 75.81 34.74Q76.11 34.78 76.48 34.81Q76.84 34.85 77.15 34.88Q77.45 34.90 77.55 34.90L77.55 34.90Q77.75 34.83 78.03 34.78Q78.31 34.73 78.78 34.70Q79.26 34.68 79.99 34.67Q80.73 34.66 81.82 34.66L81.82 34.66L86.24 34.70Q86.66 34.70 87.10 34.42Q87.54 34.14 87.98 33.76Q88.42 33.39 88.84 33.02Q89.27 32.65 89.69 32.51L89.69 32.51L89.98 32.51Q90.69 32.51 90.98 33.26L90.98 33.26Q91.00 33.56 91.08 34.35Q91.15 35.14 91.24 36.02Q91.32 36.90 91.42 37.68Q91.52 38.46 91.56 38.78L91.56 38.78Q91.56 38.83 91.59 38.95Q91.61 39.07 91.65 39.23Q91.69 39.39 91.71 39.53Q91.74 39.66 91.74 39.69L91.74 39.69L91.74 40.05Q91.74 40.69 91.69 41.20Q91.64 41.71 91.56 42.37L91.56 42.37Q91.47 42.57 91.33 42.63Q91.20 42.69 91.08 42.69L91.08 42.69Q91.00 42.69 90.93 42.61L90.93 42.61Q90.86 42.59 90.81 42.54L90.81 42.54Q90.44 42.37 90.19 42.05Q89.93 41.74 89.75 41.37Q89.56 41.00 89.42 40.60Q89.27 40.20 89.12 39.86L89.12 39.86Q88.71 38.81 87.77 38.17Q86.83 37.54 85.83 37.10L85.83 37.10Q85.19 36.83 84.58 36.83Q83.97 36.83 83.26 36.73L83.26 36.73Q83.22 36.73 82.91 36.62Q82.60 36.51 82.51 36.51L82.51 36.51L81.41 36.51L80.16 36.51Q79.97 36.51 79.60 36.60Q79.24 36.68 79.21 36.73L79.21 36.73Q79.14 36.83 79.04 36.93L79.04 36.93Q78.87 37.15 78.82 37.27L78.82 37.27Q78.72 37.44 78.60 37.72Q78.48 38.00 78.48 38.02L78.48 38.02Q78.45 38.10 78.43 38.28Q78.41 38.46 78.39 38.66Q78.38 38.85 78.36 39.04Q78.33 39.22 78.31 39.29L78.31 39.29Q78.31 39.69 78.33 40.64Q78.36 41.59 78.36 42.69L78.36 42.69Q78.36 43.79 78.33 44.75Q78.31 45.72 78.31 46.06L78.31 46.06Q78.31 47.30 78.13 48.49Q77.94 49.67 77.94 50.92L77.94 50.92Q77.94 52.26 78.03 53.59Q78.11 54.92 78.11 56.31L78.11 56.31Q78.11 58.00 78.03 59.70Q77.94 61.41 77.94 63.12L77.94 63.12Q77.94 63.64 78.17 63.93Q78.41 64.22 78.77 64.37Q79.14 64.51 79.59 64.56Q80.04 64.61 80.46 64.64L80.46 64.64Q80.65 64.66 81.08 64.69Q81.51 64.71 81.98 64.73Q82.46 64.76 82.87 64.78Q83.29 64.81 83.46 64.81L83.46 64.81Q83.92 64.98 84.16 65.34Q84.39 65.71 84.39 66.15L84.39 66.15Q84.39 66.71 84.07 67.02Q83.75 67.32 83.26 67.64L83.26 67.64L83.22 67.64Q82.31 67.64 81.54 67.50Q80.77 67.37 79.92 67.25L79.92 67.25Q77.31 66.88 74.65 66.88Z"></path></svg>